<svg version="1.1" id="Layer_1" xmlns="http://www.w3.org/2000/svg" xmlns:xlink="http://www.w3.org/1999/xlink" x="0px" y="0px"
	 width="100%" viewBox="0 0 976 1024" enable-background="new 0 0 976 1024" xml:space="preserve">
<path fill="#000000" opacity="1.000000" stroke="none" 
	d="
M551.002625,665.009888 
	C544.267761,664.819275 537.619995,665.048523 530.872131,665.970886 
	C526.632996,666.550293 522.406189,662.718018 517.535645,663.045532 
	C515.971802,663.150696 515.603271,660.952026 515.146423,659.557495 
	C513.541138,654.656921 510.610138,650.771484 506.580139,647.577881 
	C503.398010,645.056152 501.277710,641.762817 499.685822,637.961548 
	C498.191895,634.394104 496.068085,631.233459 491.126465,632.194031 
	C488.495178,632.705444 486.367401,630.957153 484.384338,629.434448 
	C481.752411,627.413574 479.112183,625.433777 475.725464,624.110291 
	C470.013184,635.844299 463.825775,647.380432 458.817169,659.407532 
	C456.749115,664.373596 460.094360,669.879456 462.183014,674.635742 
	C464.594086,680.126282 466.139496,685.920959 467.740082,691.537659 
	C469.645935,698.225525 472.473175,704.537720 474.366455,711.186829 
	C477.674011,722.802917 482.745087,733.807800 486.054657,745.448975 
	C489.174652,756.423340 492.534241,767.404846 496.903656,777.919800 
	C499.419556,783.974365 502.053864,790.109131 505.241791,795.923218 
	C507.652771,800.320435 507.356567,801.955261 503.779297,805.521790 
	C501.010315,804.484863 500.078613,802.076843 499.187592,799.521179 
	C496.574921,792.027344 494.995697,783.871094 490.932068,777.250793 
	C483.473328,765.099243 482.699982,751.021301 477.667450,738.263367 
	C475.421448,732.569519 472.449463,727.134216 470.546021,721.338867 
	C466.473267,708.938538 462.975403,696.350647 459.055664,683.898254 
	C456.926270,677.133606 454.338867,670.514282 452.118805,663.776428 
	C451.403931,661.606750 451.288177,659.247498 450.752319,657.009827 
	C445.881256,636.668884 437.876678,617.344971 430.882965,597.726868 
	C426.753387,586.142883 422.026001,574.640503 416.314209,563.618774 
	C412.013611,555.320068 412.904602,546.301453 413.964905,537.389465 
	C414.119476,536.090393 414.328247,534.797729 414.616394,532.765625 
	C411.928741,533.992798 409.976044,535.222351 408.160614,536.816284 
	C401.693481,542.494446 395.237000,548.228577 387.785217,552.600830 
	C378.063141,558.305237 374.828674,568.057861 371.641357,577.844238 
	C371.137482,579.391418 370.941559,581.037720 369.239563,582.786682 
	C374.221161,584.757446 377.273102,588.633606 381.540131,590.730530 
	C384.024963,591.951599 384.387115,593.328003 382.661926,595.290161 
	C374.636780,604.417480 369.011505,615.831055 357.493927,621.642517 
	C355.093079,622.853882 354.813293,624.491821 355.604126,627.341003 
	C359.848419,642.632141 369.028198,655.212952 376.993195,668.557861 
	C387.584808,686.303345 399.894409,703.010315 408.635406,721.914246 
	C411.865509,728.899963 417.643311,734.659973 421.658203,741.340149 
	C430.373291,755.840698 438.515289,770.686340 447.275665,785.158447 
	C450.963562,791.250854 455.634277,796.746887 459.831421,802.533447 
	C460.709442,803.743958 461.544006,804.999390 462.259644,806.309998 
	C462.804047,807.307007 463.479797,808.499634 462.174164,809.428223 
	C460.757446,810.436035 459.602417,809.719421 458.792023,808.510620 
	C453.510590,800.632385 447.132385,793.536377 442.296539,785.341492 
	C435.795319,774.324463 429.303101,763.301941 422.771057,752.303162 
	C412.451874,734.927551 401.518433,717.935913 391.446014,700.388367 
	C385.161041,689.439026 377.600555,679.040955 370.369568,668.556519 
	C361.324402,655.441711 352.841278,642.006958 349.087219,626.183228 
	C348.176453,622.344238 349.221283,619.046082 352.394989,617.595886 
	C363.310669,612.607788 369.530396,602.793701 377.535034,594.415588 
	C374.330139,590.383484 369.811523,588.689331 365.337311,587.509216 
	C361.913971,586.606323 361.216400,585.223328 362.437103,582.282288 
	C364.633972,576.989319 366.862244,571.709351 369.690552,564.961060 
	C363.025909,570.046692 356.148560,571.570435 350.059021,574.580688 
	C343.527008,577.809570 336.580811,578.926941 329.864655,581.057983 
	C317.544342,584.967102 305.736694,590.157898 293.814575,595.028259 
	C289.303772,596.871033 284.489410,598.258240 280.054474,598.807800 
	C270.117859,600.038879 262.015137,604.850525 253.406097,609.010437 
	C243.523712,613.785522 234.512558,620.029358 224.870895,625.210144 
	C218.873123,628.432922 216.402695,634.765076 214.860825,641.181335 
	C213.255356,647.862183 210.921875,654.344116 211.677277,661.553833 
	C211.966888,664.317993 209.484680,667.351318 208.340179,670.291016 
	C205.177322,678.415100 204.837509,687.160400 203.000015,695.577454 
	C202.234299,699.084961 201.078049,702.509094 200.369919,706.051636 
	C198.715027,714.330444 201.806686,722.761047 199.085571,730.822083 
	C197.040115,736.881531 198.402420,743.412476 196.277771,749.375549 
	C191.460251,762.896362 189.846542,777.108459 186.974304,791.050598 
	C186.599167,792.871582 185.776138,794.684631 183.345093,794.344543 
	C180.975952,794.013123 180.051712,792.474182 179.996475,790.147644 
	C179.856277,784.242920 182.275299,778.820312 183.094528,773.097961 
	C185.207794,758.336975 191.221664,744.453918 192.916656,729.595154 
	C193.384033,725.497925 194.239899,721.411499 194.314346,717.309143 
	C194.551865,704.220581 199.594223,692.035278 201.179398,679.216309 
	C201.871201,673.621826 202.136215,667.926880 205.462372,663.022522 
	C205.712616,662.653564 205.800354,661.997375 205.664520,661.569763 
	C203.072952,653.411743 207.406830,646.236572 209.185104,638.805115 
	C211.466904,629.269470 217.291656,622.628845 226.144485,617.349121 
	C236.615433,611.104370 247.557541,605.598511 257.646088,598.676025 
	C261.025269,596.357361 265.096497,595.526611 269.115143,594.423157 
	C277.328766,592.167786 285.981232,591.510254 293.684113,587.048035 
	C299.359802,583.760132 306.406128,583.179932 312.089203,579.715088 
	C322.774872,573.200256 335.133789,571.730713 346.679688,567.850281 
	C355.596436,564.853455 362.893280,559.172180 371.006287,554.865234 
	C386.332672,546.729065 398.550964,534.396851 412.582642,524.523376 
	C414.453369,523.206970 415.916412,521.311340 417.568848,519.684631 
	C419.040649,518.235779 420.134064,515.471802 422.682983,516.675171 
	C425.709991,518.104309 423.190765,520.627258 422.895264,522.926758 
	C425.646393,521.292847 424.946136,518.855469 424.542328,516.976196 
	C423.240875,510.919586 426.322601,505.925842 428.297974,500.753662 
	C429.213257,498.357208 431.792969,497.366028 434.624725,499.573364 
	C433.487823,486.834534 430.891541,474.536469 430.250610,462.194092 
	C429.549225,448.686951 424.986511,436.427490 421.672455,423.714996 
	C420.828644,420.478149 420.669464,417.149780 421.030334,413.822845 
	C421.161163,412.617004 421.672089,411.427887 423.113220,411.439880 
	C424.564087,411.451965 425.047211,412.687592 425.131226,413.868286 
	C425.975433,425.735779 430.571930,436.358063 435.836548,446.789276 
	C436.398285,447.902283 436.766937,449.675629 436.273376,450.670349 
	C431.888458,459.507385 435.556335,468.154327 436.766083,476.807953 
	C437.749451,483.842072 439.332672,490.790588 440.544220,497.795319 
	C441.086548,500.930878 441.515228,504.152130 437.551788,505.667969 
	C437.182312,505.809296 436.676514,506.400543 436.723846,506.707275 
	C437.842560,513.954102 435.110901,521.137329 436.776367,528.493042 
	C438.230713,534.916199 441.938141,539.888306 446.403809,543.865723 
	C453.107697,549.836670 459.394836,556.053406 465.010742,563.047485 
	C469.407227,568.523010 476.673401,569.970642 481.909058,574.376282 
	C489.784882,581.003662 498.451111,586.566956 507.260406,592.376526 
	C507.989532,588.524963 510.319824,588.006470 514.338745,589.042908 
	C520.204163,590.555420 526.371643,592.050171 532.334534,591.793091 
	C545.152222,591.240417 554.677246,584.252563 561.649475,573.772888 
	C563.892090,570.402222 566.154602,567.215393 569.777039,565.211060 
	C573.247498,563.290710 575.515930,560.142395 577.516724,556.908203 
	C580.907410,551.427246 583.307495,545.380432 587.409302,540.279663 
	C591.610596,535.055176 592.468384,528.936096 591.625977,522.370422 
	C590.823059,516.113342 592.438477,510.155975 594.934143,504.473358 
	C595.829224,502.435364 597.155579,500.502625 600.119812,499.898773 
	C598.246033,509.696442 597.329712,519.253845 597.747925,528.777100 
	C597.963074,533.677856 598.646423,538.856689 603.475708,542.597107 
	C606.146667,544.665833 607.539429,548.605042 609.045044,551.911987 
	C612.117615,558.660706 616.418213,563.586975 624.269287,564.678955 
	C632.109070,565.769409 638.380249,570.084656 644.236877,575.119751 
	C651.935974,581.738831 660.988708,586.283813 669.637756,591.423950 
	C680.027710,597.598816 690.645813,603.347595 700.078613,611.061218 
	C704.834229,614.950134 710.454529,617.556885 716.210266,619.978088 
	C728.557556,625.172180 740.888123,630.150146 751.669678,638.858093 
	C756.225525,642.537781 760.893250,647.801819 767.738281,648.749329 
	C769.248657,648.958374 770.823303,650.765381 771.830383,652.211243 
	C777.953796,661.002441 782.150635,670.740784 783.678223,681.294922 
	C784.350342,685.938904 787.079956,689.899536 787.024475,694.629395 
	C786.928894,702.787781 789.889587,710.447754 791.117981,718.407349 
	C793.675232,734.977722 794.577820,751.758240 797.564026,768.223572 
	C799.003113,776.158508 800.070129,784.278503 802.822327,791.969116 
	C803.340576,793.417297 803.070923,794.888916 802.853271,796.394348 
	C802.486816,798.928040 801.563416,801.044678 798.834717,801.377319 
	C796.236755,801.693970 795.302856,799.641113 794.252747,797.615662 
	C792.996887,795.193420 792.200317,792.549377 792.031250,790.033997 
	C791.466736,781.637695 788.988708,773.549561 788.653809,765.086792 
	C788.415283,759.062805 785.896606,753.129761 785.653320,747.105286 
	C785.297607,738.297302 782.434631,729.910889 782.796082,720.828674 
	C782.995117,715.825867 781.854065,709.563782 779.332520,704.170959 
	C777.797791,700.888550 777.219055,696.890320 776.602417,693.261414 
	C775.062134,684.197021 771.749573,675.832153 768.786743,667.241455 
	C766.928345,661.853027 764.896729,656.573120 760.109131,654.150879 
	C754.296265,651.210022 748.886902,647.667969 744.499939,643.269897 
	C740.915405,639.676208 737.740356,635.515137 733.005554,633.912231 
	C725.468445,631.360657 718.600403,627.374146 711.134338,624.702759 
	C704.994263,622.505798 699.637146,618.579224 694.654968,614.517151 
	C685.063354,606.697144 674.438843,600.648987 663.744507,594.593689 
	C654.787903,589.522461 645.939392,584.261780 638.116821,577.405518 
	C633.316711,573.198303 628.288391,569.439819 621.271851,568.899353 
	C614.352112,568.366211 609.596436,563.908386 606.475098,557.736694 
	C605.060181,554.939270 603.440002,552.245728 601.291626,548.389954 
	C599.606812,553.770203 600.228943,558.371460 599.752747,562.751465 
	C599.238342,567.484009 599.742249,572.318176 599.591309,577.101257 
	C599.254456,587.775513 595.395508,597.824158 593.894409,608.294067 
	C591.702942,623.579041 587.583313,638.935669 588.052551,654.145569 
	C588.439270,666.679321 584.385681,677.913513 582.764954,689.721313 
	C581.565186,698.461609 578.380615,707.304504 575.991821,716.066895 
	C573.484131,725.265503 571.223816,734.532593 569.808838,744.080200 
	C568.468445,753.123779 564.349915,761.754761 561.461731,770.570007 
	C558.214844,780.479919 553.826477,790.001953 551.408630,800.196716 
	C551.183655,801.145325 550.628235,802.034424 550.128052,802.894043 
	C549.470764,804.023621 548.880798,805.450317 547.148254,804.880371 
	C545.392883,804.302917 545.104431,802.853638 545.340942,801.236450 
	C545.822266,797.945068 546.123352,794.546021 547.681335,791.582764 
	C555.171814,777.336121 559.235840,761.885315 563.085083,746.448242 
	C564.908508,739.135620 565.392822,731.485107 567.114502,724.039795 
	C568.450195,718.263916 565.272644,712.705566 562.334229,707.758728 
	C558.714661,701.665222 556.302185,695.249084 554.580933,688.410522 
	C553.583740,684.448425 551.208740,680.840210 550.139038,676.887268 
	C549.145264,673.214539 547.593567,669.225891 551.140015,665.358643 
	C553.551514,665.607971 554.803589,667.059448 554.867371,668.658203 
	C555.202759,677.063599 559.894104,684.038269 562.355774,691.725342 
	C564.144165,697.309814 566.526978,702.952026 570.984009,708.827820 
	C573.842957,694.991333 577.345398,682.730225 581.002502,670.527649 
	C583.707581,661.501465 584.047546,652.766296 580.975464,643.810669 
	C580.393494,642.113892 579.452332,639.466980 582.197815,638.356262 
	C584.727539,638.992126 583.826233,641.912781 585.423462,642.915405 
	C589.721802,608.448975 595.215881,574.163696 594.852722,539.281738 
	C592.486694,543.106567 589.407410,546.617004 587.978394,550.704407 
	C585.132935,558.843079 579.786255,564.505737 572.820007,569.049072 
	C570.015991,570.877930 567.685974,573.198975 565.578186,575.840271 
	C561.278259,581.228577 557.679688,587.292419 551.282959,591.357971 
	C558.854980,589.493164 564.162109,591.890015 567.336365,598.734375 
	C568.664978,601.599304 569.904907,604.533997 571.535339,607.224792 
	C575.807251,614.274780 577.423950,622.387634 580.801331,629.791260 
	C581.650452,631.652588 581.957642,634.028992 579.404663,634.824280 
	C577.173340,635.519470 576.916565,633.258118 576.257629,631.782593 
	C575.411682,629.888184 574.484070,628.030212 573.591675,626.156494 
	C572.636536,630.595154 570.853455,634.405212 568.865051,637.943237 
	C566.737915,641.728149 564.853943,645.566895 563.353027,649.610779 
	C560.936584,656.121033 557.883240,662.092529 551.002625,665.009888 
M483.247986,603.765930 
	C487.757904,597.388123 494.230530,594.709839 502.801422,594.608704 
	C498.117737,590.242493 493.066376,588.784546 488.951874,585.757874 
	C482.175018,580.772705 475.922607,574.970398 467.724060,571.975220 
	C463.589172,570.464600 459.626556,568.059204 457.163910,563.958008 
	C453.281616,557.492615 447.389557,552.691589 442.116821,547.597351 
	C436.664246,542.329346 434.125092,536.167908 431.540283,529.514893 
	C429.285797,523.712158 431.069458,517.918884 430.283966,512.079102 
	C430.211090,521.557495 424.702301,529.332764 422.636993,538.110535 
	C421.847839,541.464539 420.160675,544.599854 420.276215,548.216919 
	C420.755493,563.220032 427.240936,576.419678 433.167847,589.645813 
	C437.169281,598.575195 440.638336,607.665283 443.634796,616.907715 
	C447.478058,628.761841 452.236450,640.291504 455.452301,653.410645 
	C463.876312,635.751160 470.797028,618.602966 483.247986,603.765930 
M515.294434,610.331604 
	C511.904602,609.762573 508.514740,609.193542 504.797028,608.569458 
	C504.143433,611.080383 502.833984,612.962830 501.159149,614.599304 
	C496.570953,619.082153 496.261810,622.868958 500.275269,627.959595 
	C502.035980,630.192810 504.310059,632.332886 504.783813,635.045959 
	C505.384216,638.483826 507.341461,640.627808 509.541718,642.940125 
	C513.292786,646.882202 517.950256,650.245178 519.594666,655.730347 
	C520.642273,659.224731 522.654968,659.276550 525.849731,659.633118 
	C531.969299,660.316223 537.675354,657.058716 543.867554,658.769226 
	C549.564697,660.343079 555.026062,657.102417 556.257324,651.197327 
	C557.343567,645.987976 559.389404,641.179260 562.217102,637.066284 
	C565.976257,631.598328 566.653687,626.630798 564.373718,620.502380 
	C562.024231,614.187073 561.408752,607.177734 556.755676,601.756470 
	C551.087463,604.911194 545.144165,605.553589 539.452087,606.828308 
	C531.758667,608.551270 524.428833,613.373352 515.294434,610.331604 
M496.271454,604.158020 
	C494.751160,601.924927 492.990173,602.658264 491.033112,603.564392 
	C485.502228,606.125244 483.602692,611.789734 479.789246,615.815491 
	C482.030945,620.091675 486.136169,621.999817 489.288269,626.338867 
	C489.341339,623.100647 493.431610,623.728271 492.353546,620.276428 
	C491.108490,616.290100 492.671570,612.855164 495.191986,609.723755 
	C496.352753,608.281555 498.470184,606.987793 496.271454,604.158020 
M502.868927,602.816956 
	C504.062439,604.102844 505.218719,603.090027 506.473724,602.888794 
	C509.197510,602.452087 511.870728,601.226074 514.759338,602.487061 
	C517.220154,603.561218 519.852112,603.164490 522.508911,603.177612 
	C529.867798,603.214111 536.338196,600.011719 543.232178,598.419861 
	C545.591125,597.875183 546.376404,595.997437 547.176514,593.468628 
	C537.512817,595.890076 528.438843,598.779724 518.851868,596.268311 
	C517.847961,596.005371 516.442688,596.318237 515.520142,596.864685 
	C511.258362,599.388672 507.006927,601.818970 501.811462,601.588684 
	C501.871979,601.852234 501.895660,602.133179 502.008423,602.372070 
	C502.065552,602.493164 502.283295,602.538452 502.868927,602.816956 
z"/>
<path fill="#000000" opacity="1.000000" stroke="none" 
	d="
M608.751953,278.121277 
	C607.277405,274.377777 605.826660,271.006897 604.732666,267.523987 
	C603.113647,262.369354 600.183777,258.509247 594.843079,256.370697 
	C598.946472,264.396881 599.594116,273.089569 601.426758,281.481140 
	C601.904480,283.668793 601.756470,285.648682 599.309265,286.319702 
	C596.960022,286.963898 596.322144,285.005646 595.442749,283.322113 
	C593.556946,279.711792 593.168518,275.361389 589.893494,271.992126 
	C589.881409,277.032715 590.702454,281.529785 592.009460,285.997162 
	C592.429688,287.433289 593.114868,289.612152 590.930786,290.313080 
	C588.767517,291.007294 588.282288,288.870026 587.497070,287.470856 
	C585.658386,284.194733 585.391785,280.500732 584.714172,276.916412 
	C584.294128,274.694305 583.903625,272.820190 580.694153,273.180695 
	C576.867004,273.610596 574.285767,270.773651 571.677551,268.514069 
	C565.167358,262.874207 560.159485,255.712830 553.166260,250.496429 
	C550.434143,248.458527 547.886597,245.498795 551.713562,241.759583 
	C553.093689,240.411133 551.694580,238.963303 550.839661,237.781952 
	C548.293030,234.262802 545.590271,230.895798 541.815491,228.554916 
	C540.319214,227.627014 538.433716,226.864227 538.932434,224.206100 
	C542.901794,222.851822 545.737122,225.464142 548.045715,227.696564 
	C555.194519,234.609573 563.653625,239.596436 572.359131,243.932846 
	C577.045837,246.267426 582.623169,246.766815 585.371765,251.959122 
	C594.061096,246.668457 604.373352,254.680161 607.049622,261.372589 
	C610.187988,269.220551 611.885376,277.598938 615.948364,285.126801 
	C616.848999,286.795502 617.451111,289.141235 617.042603,290.910034 
	C615.401733,298.014771 615.763550,304.950806 618.196106,312.112976 
	C619.185608,311.410675 618.407898,308.208069 620.859131,309.099487 
	C622.871155,309.831177 623.124878,311.858521 623.174500,313.678894 
	C623.478149,324.821411 628.173279,334.397369 633.211914,344.017700 
	C636.881287,342.067871 636.879211,339.609070 635.979919,336.583191 
	C633.657593,328.769684 631.553894,320.891296 629.340698,313.045105 
	C628.807190,311.153687 627.952576,309.264893 630.534119,306.830627 
	C634.733215,312.166382 635.933411,318.791473 639.287415,324.220123 
	C637.017212,314.939575 632.686829,306.620270 626.303833,298.661804 
	C631.266418,297.751709 633.085205,300.565582 634.731628,303.056946 
	C639.217590,309.844971 643.275146,316.844910 645.545593,324.797913 
	C648.464111,335.020844 651.056702,345.351959 654.885864,355.300049 
	C655.122009,355.913513 655.243408,356.592682 655.296021,357.251038 
	C655.434326,358.981171 656.461182,361.169769 653.941406,361.922089 
	C651.681702,362.596710 650.769897,360.630737 649.836609,359.058899 
	C649.419006,358.355530 649.125793,357.578308 648.028381,357.091827 
	C648.907776,359.428284 650.009338,361.710083 650.602051,364.117126 
	C651.157837,366.374390 653.019653,369.108856 650.227478,370.958679 
	C647.545044,372.735779 645.657349,370.396149 643.190186,368.229889 
	C643.388855,371.716705 642.667542,374.488220 641.646912,377.221924 
	C640.367554,380.648529 641.528503,383.274811 643.409851,386.611816 
	C648.809387,396.189026 648.856567,406.876404 645.404602,417.060211 
	C642.266663,426.317261 637.868652,435.146454 634.959412,444.535736 
	C634.170959,447.080231 632.647583,449.359528 630.430176,450.997040 
	C628.524048,452.404633 626.907166,451.538269 625.642395,450.009552 
	C624.268433,448.348907 625.304382,447.207855 626.843750,446.518799 
	C628.907715,445.594879 629.459351,443.776917 630.220886,441.877441 
	C633.682068,433.243896 637.567383,424.772156 640.786499,416.052582 
	C643.206055,409.498413 642.092529,402.546417 641.310242,395.806274 
	C641.059021,393.641907 641.269165,391.126556 639.315247,388.359619 
	C639.315247,390.444977 639.315247,391.741425 639.315247,393.037872 
	C637.571655,389.070496 632.346008,388.634979 631.081726,384.382172 
	C629.487244,400.761017 627.019531,416.880402 624.919067,433.529846 
	C620.241699,431.737640 621.607361,428.837921 621.834839,426.724182 
	C623.583008,410.481720 624.734863,394.167603 627.705872,377.786163 
	C633.248352,378.252777 634.018127,373.923401 634.818481,369.769958 
	C635.897888,364.167877 637.578979,358.304199 630.204041,355.202728 
	C629.968628,359.173462 630.759216,363.079102 631.773926,366.955139 
	C632.280518,368.890350 632.345215,370.932587 630.125122,371.530457 
	C627.545288,372.225220 627.225708,369.759277 626.886108,368.115570 
	C625.775696,362.740906 624.818970,357.331512 623.934875,351.913971 
	C623.210876,347.477264 623.123108,342.677460 620.412231,339.037537 
	C616.399353,333.649475 619.195557,328.163208 619.319092,322.743164 
	C619.362000,320.858246 618.991150,319.139557 618.558899,315.891449 
	C618.302185,319.911530 616.557373,321.722076 614.225464,321.669739 
	C611.988708,321.619568 610.694336,319.441040 610.039673,317.247375 
	C607.129700,307.496796 607.470215,297.155701 604.623535,287.385712 
	C604.165405,285.813232 604.931152,284.326935 606.276733,283.483490 
	C608.603760,282.024933 609.674683,284.903046 612.013977,285.372589 
	C610.902832,282.871796 609.919067,280.657776 608.751953,278.121277 
M569.346863,250.822830 
	C570.542297,251.076294 571.737671,251.329758 572.933105,251.583206 
	C569.456787,249.224930 567.172791,244.998138 561.824707,244.582901 
	C563.596252,247.868652 565.845520,249.619263 569.346863,250.822830 
M574.077881,262.315643 
	C575.849121,264.685455 577.966675,266.127197 581.188232,265.199066 
	C580.987610,263.147552 581.170227,261.279572 579.323242,259.920471 
	C577.608582,260.363678 576.370911,262.107300 574.077881,262.315643 
M644.879944,344.088623 
	C644.408203,343.391235 644.739929,342.117523 642.933838,341.918945 
	C643.753723,345.825775 645.199829,349.162842 647.234863,352.262939 
	C647.606323,349.368774 646.054932,347.136169 644.879944,344.088623 
z"/>
<path fill="#000000" opacity="1.000000" stroke="none" 
	d="
M390.981201,401.955444 
	C391.726715,408.234406 394.342834,413.349396 398.903381,417.973297 
	C403.102692,422.230988 404.712067,428.420502 406.550232,433.973175 
	C407.968903,438.258667 410.746033,439.979279 414.042023,441.780853 
	C415.054688,442.334381 416.193512,442.654358 417.265839,443.102020 
	C419.444061,444.011444 422.774017,444.088654 421.865936,447.705872 
	C420.972321,451.265533 417.805298,449.872101 415.538208,449.762695 
	C407.140564,449.357452 401.036041,443.390228 398.655670,435.499695 
	C396.234589,427.474182 392.072571,419.978302 389.584534,411.967346 
	C386.810547,403.035797 380.726227,394.779663 382.124146,384.953766 
	C383.040466,378.512817 382.421356,371.038788 389.357056,366.666382 
	C389.540558,364.289551 387.247894,362.211578 388.710724,359.522308 
	C389.353027,358.341431 387.999390,356.525238 386.127380,356.748749 
	C382.506744,357.181091 381.598511,354.477325 381.534790,352.147949 
	C381.365082,345.945129 379.333954,340.153137 377.829376,334.319611 
	C374.796509,322.560638 375.443176,311.250275 378.122955,299.448517 
	C380.434204,289.269867 384.932617,280.462250 390.279022,271.859924 
	C391.982697,269.118774 393.905853,266.127380 398.364563,267.165131 
	C398.747070,270.608765 397.004852,273.444183 395.468201,275.904968 
	C389.030579,286.214294 385.462036,297.239868 383.419983,309.296112 
	C381.749756,319.157166 383.446442,328.023590 386.256866,337.006744 
	C387.923645,342.334381 387.734131,348.229858 391.352509,353.041229 
	C390.260956,346.606232 389.571259,340.205719 390.374664,333.682343 
	C390.652679,331.425079 390.878326,329.552795 393.364929,329.368744 
	C395.799377,329.188599 397.310516,330.386627 397.620544,333.125549 
	C397.839050,335.055481 398.719696,336.910400 399.592987,338.788483 
	C398.385315,327.654388 399.449982,316.448517 398.279755,305.325378 
	C397.903687,301.751099 398.769958,298.414734 399.453735,295.035797 
	C399.822296,293.214600 401.229370,292.295074 403.688751,292.780243 
	C405.996094,299.960541 405.389496,307.617584 405.500336,315.085724 
	C405.640839,324.556580 406.770355,333.897675 407.889801,343.249451 
	C408.136047,345.306519 408.826324,347.059845 407.100739,348.737335 
	C405.192169,350.592743 403.934235,347.997284 402.234528,347.890320 
	C403.424286,352.557190 403.090881,357.446655 407.112885,361.932159 
	C412.615295,346.497986 415.902100,330.730225 422.541412,315.698273 
	C426.245728,318.507751 425.286743,321.617554 424.682373,324.658264 
	C423.915131,328.518188 421.233673,332.378204 424.920898,336.225983 
	C425.586975,336.921051 425.028931,338.155945 424.455414,339.021942 
	C418.906372,347.401062 419.025238,357.270294 417.331055,366.633728 
	C416.506378,371.191223 416.355469,375.884094 416.102539,380.526733 
	C415.939301,383.522827 416.297882,386.385529 418.298035,389.003876 
	C419.699982,390.839203 419.789642,393.238037 417.288330,394.568481 
	C414.607697,395.994263 413.758057,393.689575 412.928650,391.932648 
	C412.082947,390.141144 411.434357,388.240692 410.868164,386.337738 
	C410.344025,384.576355 410.179962,382.667694 407.797363,382.352997 
	C406.402496,382.168793 406.104706,381.032990 405.666016,379.902161 
	C403.664795,374.743500 399.084778,371.606049 393.593048,371.485199 
	C390.331207,371.413422 388.320374,373.782898 387.807007,376.171997 
	C385.945923,384.833008 384.780701,393.612762 390.756378,401.764984 
	C390.997925,401.987335 390.981201,401.955444 390.981201,401.955444 
z"/>
<path fill="#000000" opacity="1.000000" stroke="none" 
	d="
M238.865326,684.122131 
	C235.672836,677.692261 232.585632,671.629700 229.704361,665.470886 
	C228.953094,663.864929 226.803497,661.669067 229.337326,660.253662 
	C231.687576,658.940918 232.122223,661.877869 233.095016,663.195312 
	C237.780533,669.540588 240.884369,676.837219 243.893433,683.965088 
	C250.359756,699.282776 261.321381,711.061829 272.820557,722.285156 
	C283.468658,732.677856 292.974609,743.878784 301.615509,755.906738 
	C302.391846,756.987366 303.205017,758.049744 304.091797,759.039246 
	C304.506317,759.501831 305.137451,759.770264 306.043152,760.375977 
	C307.679138,755.913147 304.531555,752.584351 304.085999,748.842529 
	C302.268066,733.575195 290.756622,722.542480 286.106079,708.454285 
	C283.664520,701.057861 280.755280,693.813904 277.985504,686.528320 
	C274.266754,676.746704 270.455048,667.000427 266.737061,657.218567 
	C265.831635,654.836426 264.022552,652.538574 265.600525,649.552307 
	C269.148285,649.733215 269.523926,652.836487 270.500671,655.023804 
	C274.223175,663.359863 277.658661,671.823608 281.312469,680.191101 
	C287.220947,693.721619 291.168060,708.050110 298.052002,721.183472 
	C299.901520,724.712036 301.686340,728.278748 303.373108,731.887634 
	C309.769348,745.572693 312.355804,760.288330 315.484985,774.926453 
	C317.337097,783.590515 318.148956,792.545959 321.592529,800.886047 
	C323.892639,806.456726 321.708771,810.140198 315.131439,811.720642 
	C309.087952,796.915100 307.000366,781.388855 306.354523,764.924561 
	C301.601318,763.096802 297.979889,758.637939 294.870392,754.012390 
	C286.614838,741.731750 275.772949,731.851196 265.466248,721.484558 
	C256.858948,712.827209 249.008377,703.619568 242.832504,693.078491 
	C241.256104,690.387878 240.292603,687.338257 238.865326,684.122131 
z"/>
<path fill="#000000" opacity="1.000000" stroke="none" 
	d="
M489.059875,196.442810 
	C496.629761,194.044113 503.875214,191.701248 511.193420,189.613434 
	C515.047974,188.513779 518.500183,190.543091 523.370972,191.358383 
	C518.475281,195.427933 513.557190,196.132782 508.976562,197.426895 
	C502.318207,199.308014 495.540283,200.762375 488.858398,202.565628 
	C486.131073,203.301651 484.710999,205.740677 483.069458,207.841537 
	C482.078430,209.109848 480.945770,210.942215 479.046112,209.582764 
	C477.366608,208.380905 478.782776,206.880768 479.407043,205.599915 
	C480.130371,204.115738 480.942108,202.674652 481.733673,201.180481 
	C472.708313,203.653427 470.516571,206.443451 469.918060,216.165939 
	C469.706512,219.602356 461.355011,227.250595 457.842773,226.877686 
	C446.217224,225.643326 438.310699,230.885864 433.444458,240.992584 
	C431.256836,245.535980 427.841705,249.128189 425.373871,253.545456 
	C422.564606,252.988495 421.722198,251.197113 423.007019,249.196472 
	C428.008911,241.407883 431.616058,232.679779 438.797516,226.335052 
	C442.489258,223.073471 447.086029,222.565247 451.995850,221.182831 
	C443.559906,218.033829 438.587433,224.039810 432.824463,227.167923 
	C426.897858,230.384811 422.472900,235.349838 418.928497,241.097351 
	C416.984924,244.249023 414.514618,246.943146 411.210999,248.739304 
	C403.858978,252.736511 398.337341,258.636932 393.695404,265.467529 
	C392.701691,266.929749 392.026733,268.886597 389.032227,268.178040 
	C388.460876,263.874298 391.346130,260.814178 393.694519,258.007751 
	C398.056763,252.794510 402.818817,247.978806 409.019287,244.632477 
	C412.542236,242.731140 415.096161,239.667221 415.875000,234.964081 
	C416.777679,229.513107 422.061188,226.588776 425.722046,222.968338 
	C430.664001,218.080963 436.686646,214.710648 443.865692,213.482559 
	C447.669739,212.831833 451.201965,213.051208 454.603638,214.347794 
	C457.160461,215.322357 459.092346,217.267548 457.198242,220.577408 
	C459.407623,220.721695 460.780029,220.993820 461.051331,218.336639 
	C461.367065,215.244431 461.294159,212.612350 458.070160,211.369232 
	C451.215424,208.726151 444.181274,206.862946 436.722229,207.713928 
	C435.089935,207.900146 433.493469,208.533157 431.852814,207.837860 
	C432.126984,203.915070 435.983887,200.036179 440.284088,200.147125 
	C448.454498,200.357956 456.256287,202.093185 462.817474,207.465530 
	C463.552979,208.067749 464.396240,208.538269 465.373810,209.193329 
	C468.172516,204.018784 471.497711,199.636856 476.773071,197.425354 
	C479.744537,196.179688 483.021576,193.655090 486.106323,197.604904 
	C486.280457,197.827805 487.847137,196.963058 489.059875,196.442810 
z"/>
<path fill="#000000" opacity="1.000000" stroke="none" 
	d="
M436.123566,322.394897 
	C434.898193,319.884979 434.966278,317.519714 434.656158,315.215576 
	C434.436615,313.584808 434.368439,311.748016 433.558899,310.411163 
	C425.544220,297.175232 425.401733,282.586182 426.283173,267.897400 
	C426.588501,262.808563 428.471405,258.885132 434.950378,258.295013 
	C438.131287,258.005219 439.192596,253.310867 441.368652,250.735306 
	C446.511169,244.648590 452.114471,239.579147 460.103668,237.637177 
	C464.129272,236.658646 468.043182,235.226532 472.057648,234.194061 
	C474.249512,233.630295 476.416412,234.196045 477.993500,235.875900 
	C478.850281,236.788559 478.505890,238.024292 477.937775,239.151855 
	C476.731262,241.546417 474.787323,241.683990 472.443268,241.334259 
	C469.616455,240.912491 466.782074,241.038101 463.920532,242.717651 
	C464.916260,245.950485 463.392944,247.599670 459.829956,248.244537 
	C450.865967,249.866913 445.761658,255.617188 443.004669,265.556549 
	C450.832703,258.051392 458.297089,252.135086 466.380035,247.040466 
	C467.493256,246.338806 468.551300,245.468658 469.762604,245.026138 
	C471.000977,244.573730 472.445404,244.460495 473.304474,245.912354 
	C474.018524,247.119141 473.458496,248.171005 472.706757,249.114304 
	C471.377319,250.782486 470.002930,252.414856 468.436554,254.318390 
	C471.465149,255.127609 474.386383,252.211075 478.678284,254.650696 
	C470.930908,256.376709 464.925598,259.664001 458.147675,260.439728 
	C457.210083,260.547058 456.272339,260.283447 455.526245,261.018616 
	C450.807251,265.668671 443.930603,268.936432 445.245667,277.173096 
	C443.504944,278.490692 442.911835,276.216492 440.665222,276.311279 
	C440.665222,292.904419 440.665222,309.392914 440.665222,325.978882 
	C437.581177,325.873352 437.232300,323.989197 436.123566,322.394897 
M432.651215,271.560669 
	C432.651215,274.238739 432.651215,276.916840 432.651215,279.594910 
	C434.223907,274.861572 434.638062,270.094086 434.133362,264.427246 
	C432.573944,266.962280 433.053253,269.005402 432.651215,271.560669 
z"/>
<path fill="#000000" opacity="1.000000" stroke="none" 
	d="
M507.756714,788.899841 
	C505.796661,775.527466 504.568726,762.619629 504.975555,749.381165 
	C505.330444,737.834412 506.619019,726.470093 507.802399,715.049927 
	C508.904114,704.418030 509.925751,693.772217 511.346924,683.181396 
	C512.041992,678.001526 513.552612,672.929932 514.718018,667.814758 
	C515.336365,665.100525 517.270203,664.408020 519.658630,665.035583 
	C521.871460,665.617004 523.297485,666.697083 523.077209,669.614258 
	C522.224060,680.913879 519.691345,691.958496 518.302185,703.168335 
	C516.715210,715.973328 514.486450,728.848267 514.062073,741.609619 
	C513.537231,757.391968 511.371979,773.203125 512.995850,789.084106 
	C513.531372,794.321228 512.819580,799.696716 512.533630,805.001160 
	C512.434814,806.833862 511.461029,808.307861 509.302826,807.816650 
	C507.641541,807.438477 506.476044,805.914246 507.189453,804.444275 
	C509.629333,799.417114 506.999420,794.316162 507.756714,788.899841 
z"/>
<path fill="#000000" opacity="1.000000" stroke="none" 
	d="
M667.997681,622.007812 
	C669.233521,627.363708 673.544678,630.860596 673.873352,636.439636 
	C674.374817,644.951782 671.553284,652.452148 668.135803,659.773865 
	C661.889893,673.155029 653.802673,685.857788 649.103088,699.730896 
	C643.957581,714.920471 634.687134,727.748230 628.515442,742.217224 
	C626.704346,746.463379 625.343933,750.901184 623.762390,755.245789 
	C619.969666,765.664429 611.778137,773.471436 607.097107,783.403503 
	C604.135376,789.687439 600.377441,795.594299 597.026062,801.697449 
	C595.634827,804.231079 594.057800,806.171570 590.221619,804.475098 
	C590.973083,799.594177 593.239319,795.204407 595.732849,791.090881 
	C599.929138,784.168457 603.151733,776.698303 607.964661,770.106384 
	C609.716797,767.706604 611.710022,765.426636 613.248962,762.974426 
	C616.637207,757.575012 619.775452,751.904541 622.117615,745.989014 
	C625.814819,736.650879 630.568237,727.955444 635.944275,719.533447 
	C637.007507,717.867798 637.935547,716.043518 638.539246,714.168030 
	C644.422607,695.887024 653.546326,679.044800 661.771729,661.809998 
	C664.069397,656.995605 666.055176,652.086914 667.747742,647.052673 
	C669.341614,642.311829 670.020325,638.107483 666.637390,633.155212 
	C662.378906,626.921143 660.956604,619.033508 657.122803,612.381042 
	C656.213379,610.802917 656.398010,609.219177 657.483887,607.697815 
	C659.411499,604.997131 661.236572,602.223022 663.176880,599.531799 
	C663.866211,598.575623 664.797241,597.707886 666.130432,598.368774 
	C667.452942,599.024475 667.171509,600.293762 667.081848,601.447510 
	C667.069092,601.612122 667.071106,601.822510 666.974915,601.929749 
	C660.816833,608.796448 666.127075,615.141418 667.997681,622.007812 
z"/>
<path fill="#000000" opacity="1.000000" stroke="none" 
	d="
M526.832703,233.207092 
	C520.309082,237.067215 519.728455,236.997482 518.022705,232.441788 
	C510.196167,233.453369 508.101013,243.047318 499.718597,245.575363 
	C500.669800,240.857681 504.211182,239.510086 504.785919,236.151184 
	C501.065460,239.984451 497.215210,243.644806 493.221069,247.146255 
	C492.089081,248.138611 491.121582,249.791641 489.531555,248.567520 
	C487.766785,247.208908 488.844482,245.617035 489.925476,244.241226 
	C498.686157,233.091324 509.085052,223.961426 522.224548,218.283112 
	C524.345032,217.366714 527.320679,216.406281 528.289246,219.240082 
	C529.285095,222.153427 526.321594,223.543289 524.031189,224.329590 
	C522.270508,224.934036 520.108337,224.327438 518.239990,226.431595 
	C527.394775,224.073334 533.624146,228.096191 538.025146,234.941727 
	C543.493042,243.446869 551.348206,249.985458 556.691101,258.526062 
	C558.003845,260.624573 559.140442,262.868256 560.064758,265.163269 
	C560.753723,266.874115 561.001953,268.785217 558.613953,269.821320 
	C558.203918,269.602844 557.484375,269.451965 557.411438,269.146698 
	C555.518738,261.216766 547.066223,258.991241 543.067383,252.767151 
	C541.856812,250.882874 537.842590,251.722305 535.126587,250.540466 
	C532.459167,249.379791 529.407227,248.726105 526.834900,247.283890 
	C523.233215,245.264587 520.066467,243.896423 517.225952,248.295441 
	C516.620483,249.233093 515.475159,249.282379 514.627747,248.423569 
	C513.138245,246.914062 513.651917,245.280518 514.789856,243.940842 
	C518.844360,239.167404 524.329224,238.329941 530.172546,238.575912 
	C531.456421,238.629974 532.662781,239.569260 534.286255,238.832458 
	C533.071777,235.373230 531.789001,232.254974 526.832703,233.207092 
z"/>
<path fill="#000000" opacity="1.000000" stroke="none" 
	d="
M227.812149,731.164734 
	C234.640442,735.842407 240.937866,740.563354 248.253708,743.969116 
	C254.067398,746.675537 259.110016,751.098450 264.352295,754.953308 
	C268.594849,758.072937 272.503174,761.651367 276.781860,764.716248 
	C281.496918,768.093689 285.645935,772.068970 289.784729,776.070801 
	C293.927094,780.076111 299.171082,782.634827 303.178925,786.933472 
	C305.789246,789.733276 306.086853,792.314819 304.247803,794.815857 
	C301.999298,797.873840 299.053925,797.068481 296.604767,794.537720 
	C293.139740,790.956970 289.571747,787.462280 286.303558,783.708069 
	C281.804565,778.540161 275.748169,775.319519 270.494781,771.154785 
	C265.068909,766.853088 260.512238,761.575562 254.662888,757.776978 
	C248.443756,753.738281 241.428055,751.014771 235.716232,746.160034 
	C229.319092,740.722778 222.862717,735.354126 216.534454,729.838196 
	C215.398621,728.848206 214.920670,727.224243 216.106384,725.787659 
	C217.225540,724.431702 218.440079,725.225525 219.705338,725.718262 
	C222.711838,726.889038 225.150711,728.864502 227.812149,731.164734 
z"/>
<path fill="#000000" opacity="1.000000" stroke="none" 
	d="
M509.346130,199.908020 
	C521.749573,194.649368 534.302307,190.881500 547.446411,192.094482 
	C552.559631,192.566360 558.003662,194.905899 562.801270,197.180145 
	C571.365906,201.240143 580.552124,204.282394 587.949585,210.248291 
	C589.074280,212.070190 586.471924,212.924713 587.204041,214.570587 
	C588.766968,217.003998 592.068970,216.390305 594.037048,218.229935 
	C595.371643,219.477417 597.175171,220.779831 596.281250,222.802109 
	C595.133423,225.398865 593.107788,223.640060 591.576660,223.086105 
	C587.677917,221.675598 583.824097,220.128738 580.008179,218.505127 
	C575.651672,216.651505 571.307739,215.549561 566.489502,216.693329 
	C563.564636,217.387634 561.331970,215.598938 561.279236,212.768341 
	C561.227905,210.011795 563.924988,210.458450 565.889648,210.364914 
	C567.696655,210.278885 569.474609,211.243546 571.819885,210.297195 
	C570.231140,209.224533 568.992554,208.051285 567.520447,207.447327 
	C554.950745,202.290436 542.689697,195.658829 528.277405,201.119019 
	C521.191528,203.803558 513.843445,205.871185 506.494751,207.751831 
	C503.327728,208.562317 498.405304,210.216324 497.170349,206.262054 
	C495.941711,202.328003 501.508331,203.040131 503.770050,201.271347 
	C505.329285,200.051941 507.327057,200.684433 509.346130,199.908020 
z"/>
<path fill="#000000" opacity="1.000000" stroke="none" 
	d="
M575.950317,506.712524 
	C578.439392,505.248871 580.686279,503.700775 583.162964,505.440887 
	C584.508423,506.386139 584.650146,508.495117 583.877502,509.568054 
	C581.884888,512.335266 579.885681,515.862671 577.032654,517.081604 
	C571.562317,519.418701 565.567444,520.815674 559.655212,521.723145 
	C556.108887,522.267517 552.399048,522.131714 548.944946,523.285095 
	C533.902405,528.307922 518.955383,525.218201 505.525635,519.386841 
	C496.300049,515.380920 487.258850,509.425354 478.994690,503.024200 
	C477.686829,502.011169 476.034637,500.784576 476.566345,498.604218 
	C478.198669,497.520264 479.139465,498.823303 480.143860,499.520416 
	C487.679901,504.751434 496.004333,508.510559 504.213623,512.484558 
	C504.806366,512.771484 505.486694,513.099976 506.109406,513.069031 
	C515.171021,512.618286 523.966797,515.500671 533.016663,515.175354 
	C537.807434,515.003113 542.625183,514.560669 547.389038,514.874207 
	C557.805237,515.559937 566.908569,512.027405 575.950317,506.712524 
z"/>
<path fill="#000000" opacity="1.000000" stroke="none" 
	d="
M505.222076,320.671387 
	C505.961639,322.864471 507.607391,323.417816 509.177643,323.879669 
	C511.546448,324.576477 511.671417,326.231415 511.355469,328.194122 
	C511.009125,330.345703 509.693024,331.599701 507.578400,331.277344 
	C500.212585,330.154480 492.777496,330.940216 485.409515,330.285400 
	C483.018036,330.072845 480.512695,329.818329 478.464966,328.188232 
	C477.994171,327.813446 477.168823,327.368927 476.736206,327.539337 
	C471.247406,329.701263 464.769928,327.994019 459.754883,331.704285 
	C457.534210,333.347290 455.909332,332.936340 454.082397,330.709869 
	C451.987762,333.311005 450.083313,335.572327 448.303833,337.928040 
	C447.368744,339.165894 446.301880,339.795074 444.920471,338.973724 
	C443.420258,338.081665 443.787415,336.656189 444.470276,335.461212 
	C450.224182,325.392456 457.590698,317.497528 470.124573,316.647339 
	C471.289001,316.568359 472.583679,316.160004 473.485626,317.026886 
	C478.500854,321.847137 483.758667,319.935120 489.000305,317.652679 
	C492.116089,316.295959 502.340607,317.894379 505.222076,320.671387 
z"/>
<path fill="#000000" opacity="1.000000" stroke="none" 
	d="
M423.204712,301.635986 
	C423.682556,305.314453 424.480042,308.393066 422.235748,311.579346 
	C421.261688,312.962219 421.349304,315.183319 419.063690,315.299927 
	C416.873840,315.411652 415.286285,314.045807 414.129303,312.359283 
	C409.608521,305.769470 407.018097,298.581879 407.519226,290.451050 
	C408.029449,282.172516 408.521179,273.892120 408.915955,265.607483 
	C409.096558,261.817627 410.482117,259.619537 415.234039,260.327209 
	C414.355103,265.881836 413.861450,271.371063 414.524200,276.743774 
	C416.924652,277.468597 417.638794,275.182190 420.033630,274.834595 
	C423.876068,283.194092 422.401215,292.364380 423.204712,301.635986 
z"/>
<path fill="#000000" opacity="1.000000" stroke="none" 
	d="
M588.268616,335.052643 
	C582.211914,333.265564 576.537964,332.416412 570.684875,333.924622 
	C568.910828,334.381775 567.091858,334.021088 565.266479,333.713562 
	C561.724915,333.117004 558.205750,332.082642 554.582703,333.901031 
	C552.028137,335.183197 550.928772,333.475800 550.754822,331.081238 
	C550.403259,326.241272 554.656738,322.679291 559.270874,324.020264 
	C560.384033,324.343781 561.198608,323.925842 562.106140,323.590088 
	C566.045471,322.132782 570.076965,321.655548 574.300964,321.662537 
	C577.676636,321.668121 580.731812,321.356415 581.379089,325.897736 
	C592.425659,322.880371 597.997559,330.901459 604.685547,336.548126 
	C605.731567,337.431305 606.493408,338.657349 605.344666,340.015137 
	C604.092163,341.495483 602.720093,341.013428 601.371948,340.077515 
	C597.539429,337.416748 593.739746,334.664612 588.268616,335.052643 
z"/>
<path fill="#000000" opacity="1.000000" stroke="none" 
	d="
M542.002808,449.061249 
	C547.867676,449.104034 553.211121,448.526550 558.644836,447.625244 
	C564.830627,446.599213 570.647705,449.238495 575.965698,452.448975 
	C577.072571,453.117218 577.998840,454.369293 577.410217,455.847687 
	C576.891174,457.151276 575.729492,457.896606 574.332520,458.128052 
	C571.909546,458.529572 569.534119,457.828461 567.602478,456.683228 
	C559.221863,451.714569 550.477173,451.598114 541.368469,453.956299 
	C536.234192,455.285492 531.127747,453.221222 526.038269,453.444000 
	C516.395630,453.866058 506.888519,455.643127 497.536560,457.949463 
	C492.742859,459.131683 489.617523,456.398224 486.070465,454.417847 
	C484.778961,453.696716 484.938385,452.426758 485.722321,451.390594 
	C487.358154,449.228485 489.872559,447.667450 492.227814,448.817261 
	C500.716431,452.961273 509.301880,450.359528 517.857178,449.795990 
	C523.138611,449.448090 528.349609,448.044556 533.707031,449.594666 
	C536.266968,450.335297 539.001892,449.959137 542.002808,449.061249 
z"/>
<path fill="#000000" opacity="1.000000" stroke="none" 
	d="
M592.656311,365.475281 
	C591.266602,364.819244 590.137695,364.440491 589.180969,363.803375 
	C585.870483,361.598969 583.291260,359.846344 582.287781,366.096802 
	C581.563293,370.609406 572.770569,371.343994 568.036499,367.501862 
	C567.058472,366.708160 566.570251,365.310852 566.134583,364.627960 
	C564.723022,365.112915 564.342896,365.134186 564.130371,365.333832 
	C562.529419,366.837891 560.840759,369.984222 558.627075,367.705872 
	C556.340271,365.352264 559.108093,363.290436 561.057495,361.741486 
	C565.378967,358.307831 570.082031,355.548096 575.448364,354.091187 
	C576.911377,353.694061 578.053650,353.227448 579.121887,351.919220 
	C582.078369,348.298309 585.704651,349.985168 589.112854,351.270996 
	C590.122925,351.652069 590.447693,352.729919 590.161987,353.797302 
	C589.838745,355.005310 588.821899,355.090637 587.785889,355.082397 
	C586.077209,355.068787 584.442017,353.454102 581.899902,355.346375 
	C590.263672,356.303589 596.194214,360.306976 600.966370,366.613678 
	C597.643250,369.879700 595.522034,366.127899 592.656311,365.475281 
z"/>
<path fill="#000000" opacity="1.000000" stroke="none" 
	d="
M477.861725,362.565430 
	C476.205841,355.607880 475.515930,355.284790 469.170074,358.542053 
	C466.171478,360.081268 463.076324,361.162048 459.661987,361.004822 
	C458.355286,360.944702 456.826813,361.022217 456.667023,359.155151 
	C456.522247,357.463562 457.957916,356.367371 459.087830,356.528503 
	C464.685303,357.326935 468.058044,353.098022 472.295776,350.944000 
	C475.752075,349.187225 479.109833,349.390869 482.834442,349.421082 
	C491.186707,349.488861 497.458099,355.172760 505.180969,356.661591 
	C506.363770,356.889557 506.872742,357.864044 506.699341,358.882996 
	C506.304901,361.200714 504.568634,362.631073 502.675934,363.663544 
	C501.321838,364.402283 499.750763,364.346924 498.738403,362.762024 
	C497.855499,361.379730 497.289764,359.741852 495.667572,358.960938 
	C489.211243,364.787445 484.016876,365.940826 477.861725,362.565430 
z"/>
<path fill="#000000" opacity="1.000000" stroke="none" 
	d="
M627.991333,279.990814 
	C625.710815,275.497742 621.421387,273.483398 618.424438,270.196533 
	C617.353210,269.021698 615.568298,267.881012 616.884277,266.005585 
	C618.132690,264.226379 619.958801,265.211548 621.441589,265.780121 
	C627.026001,267.921661 631.402527,272.006836 634.758301,276.552704 
	C641.510132,285.698975 647.608643,295.348694 651.853760,306.025665 
	C653.045288,309.022491 653.126038,311.914154 650.088196,313.269348 
	C646.350281,314.936859 644.846497,311.204773 644.216675,308.905975 
	C641.225586,297.987396 634.583008,289.232086 627.991333,279.990814 
z"/>
<path fill="#000000" opacity="1.000000" stroke="none" 
	d="
M605.591248,472.506165 
	C606.778564,467.211761 608.747253,462.679474 611.314209,458.348297 
	C615.054871,452.036804 616.789490,444.848755 619.857483,438.237946 
	C620.519653,436.811127 620.493286,434.875061 622.709656,434.241547 
	C625.254333,436.266266 624.763000,438.879730 623.815308,441.373657 
	C621.524109,447.403259 619.439758,453.523254 615.868835,458.998779 
	C610.823181,466.735474 609.299011,475.986084 605.252075,484.160034 
	C601.977905,490.773010 597.488708,496.542297 592.639709,502.040436 
	C591.314270,503.543304 589.525146,505.260071 587.557739,503.533142 
	C585.701782,501.903992 587.370483,500.026733 588.543030,498.773529 
	C593.504395,493.470734 599.082092,488.693970 601.653076,481.541595 
	C602.717712,478.579987 604.177246,475.760315 605.591248,472.506165 
z"/>
<path fill="#000000" opacity="1.000000" stroke="none" 
	d="
M621.094360,251.914856 
	C625.317261,253.927277 629.209961,255.779404 633.109802,257.616119 
	C635.543091,258.762085 637.744019,260.257599 639.447937,262.331543 
	C640.608093,263.743561 641.666870,265.392975 640.624939,267.322784 
	C639.975525,268.525665 638.621582,268.552826 637.516418,268.268951 
	C635.758362,267.817444 633.330688,267.034027 633.586060,265.139709 
	C633.926270,262.615875 632.525879,262.293152 631.017700,261.796844 
	C621.029236,258.509766 613.010254,252.044983 604.903442,245.715607 
	C604.250183,245.205566 603.667725,244.291626 602.969604,244.200760 
	C596.025818,243.297134 596.247253,236.184235 592.652039,232.403839 
	C591.919434,231.633499 591.889526,230.541183 592.721741,229.703232 
	C593.863770,228.553284 594.902832,229.278458 595.731262,230.121384 
	C598.740479,233.183243 602.246155,235.673019 604.929810,239.151215 
	C609.128723,244.593292 615.320740,247.749023 621.094360,251.914856 
z"/>
<path fill="#000000" opacity="1.000000" stroke="none" 
	d="
M454.969482,481.030151 
	C459.944519,485.339783 462.162292,491.715515 468.202148,494.707672 
	C470.589508,495.890381 472.454193,498.745331 469.405823,501.644470 
	C458.680603,497.904968 436.696930,465.716949 437.946289,454.018982 
	C444.821411,462.953430 447.470337,473.400879 454.969482,481.030151 
z"/>
<path fill="#000000" opacity="1.000000" stroke="none" 
	d="
M542.603516,369.872192 
	C538.763611,358.484924 544.315186,350.060150 549.871643,340.752441 
	C552.048950,343.323792 550.993774,345.025085 550.205200,346.128601 
	C545.652954,352.498871 547.008972,359.183228 548.575806,366.033325 
	C550.090332,372.654816 549.552795,379.340240 548.609192,386.077240 
	C544.381897,381.504150 544.236023,375.577667 542.603516,369.872192 
z"/>
<path fill="#000000" opacity="1.000000" stroke="none" 
	d="
M534.393494,462.656311 
	C540.175537,462.856323 545.479675,462.931244 550.264404,459.878387 
	C551.183777,459.291840 552.454224,458.782288 553.440369,459.972748 
	C554.469055,461.214630 554.194946,462.427338 553.189270,463.553986 
	C551.353638,465.610535 549.813843,467.042847 546.282837,466.809631 
	C538.723572,466.310394 531.054932,467.960541 523.494324,466.156525 
	C519.790894,465.272888 516.126038,464.225311 512.453430,463.216644 
	C511.010498,462.820404 510.017670,461.831177 510.334656,460.316925 
	C510.687286,458.632538 512.214233,458.628143 513.570007,458.815521 
	C515.380493,459.065765 517.381042,459.048553 518.933289,459.853424 
	C523.704651,462.327545 528.831299,462.362946 534.393494,462.656311 
z"/>
<path fill="#000000" opacity="1.000000" stroke="none" 
	d="
M409.367218,407.220947 
	C407.156464,410.435486 408.838623,413.199615 409.827423,415.953094 
	C410.612427,418.139130 411.688171,420.220306 412.623169,422.353119 
	C413.156647,423.570068 413.034637,424.637665 411.796173,425.359711 
	C410.450073,426.144501 409.021729,426.059204 408.295044,424.704010 
	C405.371033,419.251373 402.790588,413.572418 403.074158,407.246857 
	C403.242767,403.486359 408.848297,399.538239 413.796997,399.051941 
	C415.403534,403.017670 414.681976,406.914276 413.804108,410.825256 
	C410.892822,410.797363 412.317963,406.834290 409.367218,407.220947 
z"/>
<path fill="#000000" opacity="1.000000" stroke="none" 
	d="
M631.154053,402.015198 
	C631.531555,400.874298 631.675171,400.024231 632.068237,399.311859 
	C633.177185,397.302216 634.224609,394.593842 637.206360,396.317322 
	C640.000122,397.932129 637.554504,399.553497 636.779053,401.237030 
	C634.678711,405.796844 635.010132,410.588074 635.952698,415.348053 
	C636.872009,419.990356 636.462952,424.253967 633.044067,427.873138 
	C632.004700,428.973450 630.911987,429.437592 629.548645,428.535370 
	C628.508179,427.846863 627.557190,426.753387 628.286926,425.642517 
	C632.726074,418.884491 630.128113,411.442139 630.572693,404.302216 
	C630.613220,403.650726 630.874939,403.013031 631.154053,402.015198 
z"/>
<path fill="#000000" opacity="1.000000" stroke="none" 
	d="
M512.584229,441.466370 
	C523.118896,437.121124 544.431763,437.509460 548.473206,441.967407 
	C548.416870,442.926910 547.772522,443.732422 546.997131,443.739777 
	C534.084839,443.862030 521.040527,441.570923 508.353516,445.937653 
	C508.133331,446.013458 507.565704,445.079956 507.185699,444.646454 
	C508.164856,442.139191 510.561188,442.511627 512.584229,441.466370 
z"/>
<path fill="#000000" opacity="1.000000" stroke="none" 
	d="
M391.009277,402.000824 
	C390.542419,396.557648 389.364288,391.134430 389.891602,385.629059 
	C390.184143,382.574768 391.188232,379.626770 394.241852,378.243408 
	C396.623016,377.164673 398.273926,378.645233 399.944489,380.638062 
	C391.821533,386.361816 395.797394,394.068359 396.433868,401.062164 
	C396.728729,404.301758 397.927063,407.391205 396.140106,410.754852 
	C392.075806,409.123810 394.079224,404.451050 391.209167,402.178284 
	C390.981201,401.955444 390.997925,401.987335 391.009277,402.000824 
z"/>
<path fill="#000000" opacity="1.000000" stroke="none" 
	d="
M650.370483,319.868622 
	C652.228271,324.474060 653.834290,328.800629 655.444519,333.125580 
	C656.154602,335.032990 656.119507,336.884033 654.037964,337.744812 
	C651.874207,338.639587 650.608643,337.271179 649.975708,335.313995 
	C648.554810,330.920227 647.147400,326.521149 645.822144,322.097992 
	C645.432861,320.798706 645.477966,319.400299 646.762085,318.514465 
	C648.273865,317.471497 649.169983,318.692657 650.370483,319.868622 
z"/>
<path fill="#000000" opacity="1.000000" stroke="none" 
	d="
M524.423218,419.067719 
	C522.144348,418.153564 520.579407,418.712982 519.059143,420.001831 
	C517.293762,421.498596 514.994446,422.525940 513.553040,420.149353 
	C512.450684,418.331909 513.088257,415.499115 514.952820,414.428619 
	C518.537537,412.370453 522.696960,411.879639 526.794739,412.547333 
	C528.317566,412.795441 530.281250,413.747253 530.048340,415.714905 
	C529.702881,418.633453 527.093323,418.802887 524.423218,419.067719 
z"/>
<path fill="#000000" opacity="1.000000" stroke="none" 
	d="
M533.467529,421.319000 
	C538.157227,421.223328 541.814270,419.535919 545.011475,416.576843 
	C546.978699,414.756104 555.578186,415.345428 557.209351,417.275177 
	C557.956543,418.159241 558.003540,419.102966 557.401611,420.019714 
	C556.401062,421.543671 554.567322,422.749176 553.178101,421.935028 
	C547.504395,418.610229 542.663025,421.526123 537.553223,423.316376 
	C535.870117,423.906036 533.479736,424.837830 533.467529,421.319000 
z"/>
<path fill="#000000" opacity="1.000000" stroke="none" 
	d="
M470.324341,346.663086 
	C474.988708,345.069885 479.313721,343.134155 484.379028,345.463440 
	C482.772644,346.984161 470.365448,350.568146 465.053680,351.356934 
	C465.157440,347.992493 468.071869,347.902649 470.324341,346.663086 
z"/>
<path fill="#000000" opacity="1.000000" stroke="none" 
	d="
M559.150146,400.976990 
	C560.740723,402.881348 562.126709,404.510162 563.459717,406.181274 
	C563.996460,406.854218 564.245728,407.661560 563.665710,408.445923 
	C562.981384,409.371338 562.021118,409.445068 561.011658,409.107544 
	C557.557983,407.952698 554.508667,401.885803 555.379456,397.844391 
	C557.595398,397.523804 557.702515,399.825836 559.150146,400.976990 
z"/>
<path fill="#000000" opacity="1.000000" stroke="none" 
	d="
M506.140747,417.710724 
	C503.288635,410.761627 503.366180,410.085266 507.556244,406.105835 
	C510.509705,409.621277 505.891327,415.436310 511.665375,417.673065 
	C509.482483,419.687256 507.943970,419.324707 506.140747,417.710724 
z"/>
<path fill="#000000" opacity="1.000000" stroke="none" 
	d="
M547.189575,486.024078 
	C543.354126,489.980072 537.160339,490.301178 530.203674,486.390320 
	C536.665466,485.275146 541.969116,485.750244 547.189575,486.024078 
z"/>
</svg>